<?xml version="1.0" standalone="no"?>
<!DOCTYPE svg PUBLIC "-//W3C//DTD SVG 20010904//EN"
 "http://www.w3.org/TR/2001/REC-SVG-20010904/DTD/svg10.dtd">
<svg version="1.0" xmlns="http://www.w3.org/2000/svg"
 width="112.000000pt" height="112.000000pt" viewBox="0 0 112.000000 112.000000"
 preserveAspectRatio="xMidYMid meet">
<metadata>
Created by potrace 1.11, written by Peter Selinger 2001-2013
</metadata>
<g transform="translate(0.000000,112.000000) scale(0.100000,-0.100000)"
fill="#000000" stroke="none">
<path d="M673 1054 c-27 -21 -53 -73 -53 -106 0 -5 18 -8 40 -8 36 0 40 -2 40
-25 0 -22 -4 -25 -40 -25 -38 0 -40 -2 -40 -30 0 -28 2 -30 40 -30 36 0 40 -2
40 -25 0 -22 -4 -25 -40 -25 -36 0 -40 -2 -40 -25 0 -22 4 -25 40 -25 36 0 40
-3 40 -24 0 -21 -5 -25 -37 -28 l-38 -3 -3 -62 c-4 -81 11 -132 48 -168 26
-24 40 -30 94 -33 73 -5 112 11 146 58 17 23 21 44 21 102 1 116 4 108 -42
108 -36 0 -40 2 -37 23 2 17 10 23 39 25 30 3 38 8 42 28 4 22 1 24 -39 24
-40 0 -44 2 -44 25 0 22 4 25 39 25 40 0 56 16 45 45 -4 10 -20 15 -46 15 -35
0 -39 2 -36 23 2 18 10 23 43 25 40 3 41 3 37 38 -3 24 -16 47 -39 70 -33 33
-36 34 -111 34 -67 0 -81 -3 -109 -26z"/>
<path d="M240 950 c0 -5 9 -10 20 -10 11 0 29 -9 40 -20 19 -19 20 -33 20
-347 0 -197 -4 -343 -11 -366 -27 -98 -122 -102 -150 -7 -7 22 -18 40 -26 40
-21 0 -19 -156 3 -164 31 -12 68 -6 109 19 51 29 86 74 128 163 l32 67 5 293
c5 276 6 295 24 308 11 8 28 14 38 14 10 0 18 5 18 10 0 6 -48 10 -125 10 -77
0 -125 -4 -125 -10z"/>
<path d="M531 603 c4 -141 5 -150 32 -196 29 -50 104 -107 139 -107 17 0 19
-7 16 -62 l-3 -63 -47 -3 -48 -3 0 -50 0 -49 154 0 154 0 4 46 c2 25 1 47 -1
50 -2 2 -24 4 -48 4 l-43 0 0 65 c0 56 3 65 18 65 29 0 107 55 129 91 31 51
45 133 41 249 l-3 105 -30 0 -30 0 -2 -132 c-2 -150 -5 -167 -42 -206 -40 -43
-74 -57 -142 -57 -77 0 -131 28 -165 86 -22 38 -24 51 -24 177 l0 137 -31 0
-31 0 3 -147z"/>
</g>
</svg>
